<svg xmlns="http://www.w3.org/2000/svg" viewBox="0 0 512 512" role="img" aria-label="Hawa Mahal — Jaipur News">
  <rect width="512" height="512" rx="104" fill="#b71c1c"/>
  <g fill="#ffffff">
    <path d="M101,390 V353 a17,17 0 0 1 34,0 V390 Z"/>
    <path d="M147,390 V353 a17,17 0 0 1 34,0 V390 Z"/>
    <path d="M193,390 V353 a17,17 0 0 1 34,0 V390 Z"/>
    <path d="M239,390 V353 a17,17 0 0 1 34,0 V390 Z"/>
    <path d="M285,390 V353 a17,17 0 0 1 34,0 V390 Z"/>
    <path d="M331,390 V353 a17,17 0 0 1 34,0 V390 Z"/>
    <path d="M377,390 V353 a17,17 0 0 1 34,0 V390 Z"/>
    <path d="M147,326 V289 a17,17 0 0 1 34,0 V326 Z"/>
    <path d="M193,326 V289 a17,17 0 0 1 34,0 V326 Z"/>
    <path d="M239,326 V289 a17,17 0 0 1 34,0 V326 Z"/>
    <path d="M285,326 V289 a17,17 0 0 1 34,0 V326 Z"/>
    <path d="M331,326 V289 a17,17 0 0 1 34,0 V326 Z"/>
    <path d="M193,262 V225 a17,17 0 0 1 34,0 V262 Z"/>
    <path d="M239,262 V225 a17,17 0 0 1 34,0 V262 Z"/>
    <path d="M285,262 V225 a17,17 0 0 1 34,0 V262 Z"/>
    <path d="M239,224 V167 a17,17 0 0 1 34,0 V224 Z"/>
    <circle cx="256" cy="150" r="20"/>
    <rect x="252" y="108" width="8" height="34" rx="4"/>
    <circle cx="256" cy="104" r="10"/>
    <rect x="78" y="398" width="356" height="26" rx="6"/>
  </g>
</svg>
